{"glyphs":{":":{"x_min":0,"x_max":290,"ha":290,"o":"m 37 92 q 37 45 69 15 q 100 -17 146 -17 q 191 -17 222 14 q 254 45 254 92 q 254 138 222 170 q 191 201 146 201 q 101 201 69 169 q 53 154 45 134 q 37 115 37 92 z m 36 365 q 36 410 68 441 q 100 472 146 472 q 190 472 222 440 q 254 408 254 364 q 254 319 222 287 q 190 255 144 255 q 99 255 68 288 q 36 320 36 365 z"},"$":{"x_min":0,"x_max":524,"ha":524,"o":"m 219 722 l 219 791 l 348 791 l 348 723 q 390 723 446 706 l 470 698 l 482 694 q 482 679 481 648 q 480 617 480 601 l 483 518 l 419 518 q 399 518 390 520 q 381 521 376 534 l 373 542 l 371 550 l 368 558 l 366 564 l 360 575 q 348 596 331 606 q 314 617 287 617 q 280 618 268 618 q 246 618 232 610 q 196 590 196 556 q 196 552 198 540 q 200 529 210 516 q 221 504 246 486 l 266 472 l 276 466 l 323 439 l 347 425 l 405 388 q 511 311 511 215 q 511 186 501 146 q 491 106 460 71 q 430 36 378 12 l 347 1 l 347 -75 l 214 -75 l 214 -16 l 211 -15 q 206 -14 180 -12 q 153 -9 128 -7 q 106 -7 57 7 l 40 11 l 23 16 q 23 40 23 64 q 23 88 24 113 l 21 208 l 89 210 q 111 210 118 206 q 125 203 129 190 l 135 168 q 149 115 201 101 q 224 95 243 95 q 281 95 304 116 q 326 136 326 167 q 326 186 316 200 q 306 213 279 230 l 261 242 l 240 255 l 209 274 l 196 283 l 138 315 q 122 323 108 334 q 95 346 82 359 q 73 367 68 372 q 64 378 53 392 q 14 448 14 514 q 14 575 48 626 q 83 678 145 705 q 164 713 183 718 q 202 722 219 722 z"},"?":{"x_min":0,"x_max":529,"ha":529,"o":"m 93 92 q 93 46 124 14 q 155 -17 201 -17 q 246 -17 277 14 q 308 45 308 92 q 308 138 276 169 q 245 200 201 200 q 156 200 124 168 q 93 137 93 92 z m 7 741 q 22 747 38 752 q 54 758 71 763 q 159 788 235 788 q 361 788 436 724 q 507 663 507 571 q 507 505 468 459 q 430 413 327 360 l 307 350 l 289 339 q 253 310 253 265 l 253 229 l 139 229 l 139 301 q 139 340 150 362 q 161 385 201 422 l 225 445 l 246 464 q 289 504 299 543 q 302 552 303 562 q 304 571 304 582 q 304 628 276 656 q 248 684 204 684 l 182 681 q 124 666 118 609 l 117 597 q 117 574 101 570 l 97 569 l 94 568 l 76 566 l 8 565 q 8 580 8 587 q 8 600 8 606 q 8 617 8 623 q 8 633 8 638 q 8 646 8 651 q 8 658 8 662 q 8 679 8 696 q 7 713 7 731 q 7 738 7 741 z"},"'":{"x_min":0,"x_max":224,"ha":224,"o":"m 29 468 l 51 720 l 195 720 l 173 468 z"},"a":{"x_min":0,"x_max":551,"ha":551,"o":"m 45 301 l 45 440 q 66 447 92 452 q 118 458 138 461 q 176 468 209 471 q 242 474 274 474 q 286 474 299 474 q 308 472 312 472 q 403 472 449 432 q 491 395 491 329 l 491 150 q 491 126 518 120 l 522 119 l 530 116 q 540 112 540 96 l 540 19 q 467 13 403 -3 l 356 -15 l 326 0 l 319 27 l 290 10 q 275 1 258 -4 q 242 -9 221 -12 q 200 -14 180 -14 q 118 -14 77 15 q 36 44 26 91 q 21 116 21 134 q 21 234 147 258 l 268 282 q 313 297 313 325 q 313 339 304 351 q 296 363 282 368 q 269 374 248 374 q 240 374 232 374 q 229 374 213 370 q 176 362 168 343 l 156 317 q 153 309 149 306 q 144 301 133 301 z m 240 181 q 215 173 210 150 q 209 147 209 144 q 209 140 209 139 q 209 104 251 104 q 263 104 270 106 q 311 114 311 158 l 311 209 z"},"L":{"x_min":0,"x_max":587,"ha":587,"o":"m 7 0 l 7 101 l 14 101 q 63 105 75 155 l 77 170 l 78 181 l 78 202 l 78 230 l 79 518 l 79 537 l 78 550 l 76 565 q 64 614 16 618 l 9 619 l 9 719 q 92 709 183 709 q 275 709 356 719 l 356 619 l 349 618 q 297 614 287 565 l 284 550 l 284 541 l 284 518 l 284 220 l 284 178 q 284 148 292 132 q 299 117 319 107 l 339 101 l 344 101 l 363 100 l 392 100 q 430 100 447 128 q 453 137 458 163 q 464 189 473 198 q 482 207 510 207 l 574 207 q 565 142 565 78 q 565 58 565 46 q 565 33 569 0 q 531 0 501 2 q 395 9 390 9 q 285 9 188 8 q 91 8 7 0 z"},"3":{"x_min":0,"x_max":611,"ha":611,"o":"m 37 45 q 41 89 42 108 q 42 127 42 138 q 42 154 41 188 q 40 221 40 238 l 112 239 q 142 239 151 230 q 160 221 160 189 q 160 148 185 125 q 210 102 256 102 q 262 102 270 103 q 279 104 284 104 q 364 116 374 201 q 376 219 376 227 q 376 281 347 310 q 318 339 267 339 q 256 339 251 338 l 231 335 q 233 347 234 362 q 235 377 235 392 q 235 410 235 428 q 232 443 231 450 l 251 446 q 332 446 342 521 q 343 526 343 536 q 343 571 322 594 q 301 617 268 617 q 195 617 182 554 l 180 543 l 178 532 l 176 524 q 169 510 143 507 l 131 506 l 63 506 q 63 536 62 594 q 61 652 61 680 q 119 712 184 724 q 248 735 300 735 q 398 735 461 697 q 519 662 536 603 q 543 575 543 556 q 543 508 514 472 q 486 435 434 417 l 415 411 q 451 403 481 386 q 582 325 582 216 q 582 192 576 166 q 559 86 486 36 q 412 -15 296 -15 q 249 -15 202 -7 q 155 1 98 21 z"},";":{"x_min":0,"x_max":292,"ha":292,"o":"m 78 -164 q 83 -162 91 -159 q 99 -156 113 -148 q 156 -126 185 -99 q 214 -72 232 -38 q 245 -14 252 14 q 259 42 259 64 q 259 96 248 124 q 237 151 218 170 q 184 202 141 202 q 99 202 68 170 q 36 139 36 92 q 36 48 68 16 q 99 -15 144 -15 q 137 -40 117 -59 q 97 -78 62 -90 l 48 -94 z m 36 366 q 36 410 68 441 q 100 472 146 472 q 189 472 221 440 q 253 408 253 363 q 253 319 222 288 q 190 256 145 256 q 100 256 68 288 q 36 320 36 366 z"},"J":{"x_min":0,"x_max":501,"ha":501,"o":"m 0 26 q 4 69 4 86 q 5 103 5 114 l 4 202 l 49 201 q 90 201 102 192 q 115 183 115 154 l 115 142 q 115 119 124 109 q 133 99 154 95 q 158 94 167 94 q 187 94 200 108 q 213 123 213 149 l 214 166 l 214 181 l 214 518 q 214 570 199 592 q 184 615 148 618 l 140 619 l 140 719 q 179 714 225 711 q 271 708 314 708 q 355 708 400 711 q 445 714 488 719 l 488 619 l 481 618 q 432 614 420 565 l 418 550 l 417 539 l 417 518 l 417 176 q 417 81 366 34 q 316 -14 205 -14 q 180 -14 152 -11 q 123 -8 94 -2 q 64 4 33 14 l 16 20 z"},"V":{"x_min":0,"x_max":777,"ha":777,"o":"m 11 619 l 11 719 l 99 711 l 165 711 q 182 711 190 711 q 205 711 212 711 q 272 711 296 712 q 320 714 363 719 l 363 619 l 356 618 q 313 618 318 564 l 320 550 l 323 538 l 329 518 l 431 174 l 542 518 l 549 538 l 552 550 l 555 564 q 556 569 556 577 q 556 614 519 618 l 513 619 l 513 719 q 535 716 569 714 q 603 712 657 712 l 705 712 l 767 719 l 767 619 l 759 618 q 734 616 714 600 q 695 583 680 550 l 670 518 l 489 0 q 440 10 384 10 q 329 10 279 0 l 106 518 l 98 540 l 95 550 l 87 565 q 61 613 18 618 z"},"\"":{"x_min":0,"x_max":426,"ha":426,"o":"m 51 720 l 195 720 l 173 468 l 29 468 z m 253 720 l 397 720 l 375 468 l 231 468 z"},"7":{"x_min":0,"x_max":610,"ha":610,"o":"m 40 494 q 40 530 44 603 q 48 676 48 714 l 80 713 l 146 711 l 477 711 l 538 713 l 570 714 l 566 593 q 485 512 434 397 q 379 271 348 75 q 344 50 341 32 q 338 13 338 0 q 286 7 225 7 q 165 7 113 0 q 135 152 204 292 q 272 433 393 568 l 420 597 l 259 598 l 246 598 l 228 597 q 172 597 161 540 q 156 517 150 509 q 144 501 136 498 q 129 495 104 495 z"},"S":{"x_min":0,"x_max":524,"ha":524,"o":"m 482 694 q 482 679 481 648 q 480 617 480 601 l 483 518 l 419 518 q 399 518 390 520 q 381 521 376 534 l 373 542 l 371 550 l 368 558 l 366 564 l 360 575 q 348 596 331 606 q 314 617 287 617 q 280 618 268 618 q 246 618 232 610 q 196 590 196 556 q 196 552 198 540 q 200 529 210 516 q 221 504 246 486 l 266 472 l 276 466 l 323 439 l 347 425 l 405 388 q 511 311 511 215 q 511 186 502 151 q 483 76 412 30 q 340 -15 223 -15 q 191 -15 160 -12 q 128 -9 90 -1 l 57 7 l 41 11 l 23 16 q 23 40 23 64 q 23 88 24 113 l 21 208 l 89 210 q 111 210 118 206 q 125 203 129 190 l 135 168 q 149 115 201 101 q 224 95 243 95 q 281 95 304 116 q 326 136 326 167 q 326 186 316 200 q 306 213 279 230 l 261 242 l 240 255 l 209 274 l 196 283 l 138 315 q 122 323 108 334 q 95 346 82 359 q 49 391 32 432 q 14 473 14 515 q 14 564 36 607 q 57 650 99 679 q 134 703 182 716 q 229 729 289 729 q 347 729 413 714 q 444 707 482 694 z"},"}":{"x_min":0,"x_max":367,"ha":367,"o":"m 29 -122 l 29 -36 l 42 -36 q 72 -36 85 -25 q 98 -14 98 12 l 98 266 q 98 295 115 318 q 132 342 161 354 l 187 360 l 161 366 q 132 378 115 402 q 98 425 98 454 l 98 708 q 98 734 86 745 q 74 756 42 756 l 29 756 l 29 842 l 172 842 q 219 842 245 816 q 271 790 271 742 l 271 432 q 271 401 290 380 q 310 360 338 360 q 310 360 290 340 q 271 319 271 288 l 271 -22 q 271 -70 245 -96 q 219 -122 172 -122 z"},"Z":{"x_min":0,"x_max":626,"ha":626,"o":"m 14 162 l 386 606 l 249 607 q 194 607 178 598 q 161 589 157 556 l 155 547 q 147 510 111 510 l 52 510 q 52 563 52 615 q 52 667 53 719 q 92 719 122 717 q 227 710 234 710 l 300 710 q 369 710 446 710 q 523 711 609 719 l 609 680 l 609 640 l 609 599 l 609 558 l 238 114 l 411 114 q 469 114 485 123 q 501 132 506 166 l 508 180 q 508 191 515 198 q 526 209 552 209 l 612 208 l 611 159 l 611 110 l 611 0 q 539 0 478 2 q 263 9 218 9 q 176 9 142 7 q 24 0 14 0 l 16 39 q 16 58 15 99 q 14 140 14 162 z"},"x":{"x_min":0,"x_max":624,"ha":624,"o":"m 9 0 l 9 94 q 27 94 44 102 q 61 109 88 131 l 99 140 l 107 147 l 125 166 l 184 223 l 119 292 l 101 310 l 94 317 l 84 326 l 60 345 q 48 354 41 358 q 34 361 24 363 l 20 363 l 14 364 l 14 457 q 100 449 176 449 q 252 449 338 457 l 338 364 q 334 365 324 363 q 312 358 312 349 q 312 343 316 336 l 330 317 l 345 295 l 352 285 l 358 295 l 360 298 l 376 317 l 392 336 q 397 344 397 349 q 397 356 392 359 l 383 363 q 371 365 368 364 l 368 457 q 423 450 485 450 q 549 450 602 457 l 602 364 q 585 364 564 356 q 544 347 520 326 l 509 317 l 501 310 l 483 292 l 437 246 l 512 166 l 529 148 l 536 140 l 546 131 l 568 112 q 590 97 601 94 l 606 94 l 611 94 l 611 0 q 537 7 450 7 q 364 7 288 0 l 288 94 l 306 94 l 316 98 q 322 101 322 109 q 322 116 318 121 l 302 140 l 276 166 l 272 170 l 266 166 l 253 155 l 235 140 l 217 121 q 214 115 214 109 q 214 101 221 98 l 236 94 l 258 94 l 258 0 q 201 7 134 7 q 68 7 9 0 z"},")":{"x_min":0,"x_max":262,"ha":262,"o":"m 0 -10 l 12 -5 q 42 8 54 32 q 67 55 67 101 l 67 360 l 67 620 q 67 664 54 688 q 41 712 12 726 l 0 730 l 48 842 l 80 829 q 156 793 191 738 q 226 683 226 598 l 226 360 l 226 122 q 226 37 192 -18 q 157 -73 80 -109 l 48 -121 z"},"&":{"x_min":0,"x_max":728,"ha":728,"o":"m 173 375 q 164 388 146 422 q 132 449 127 461 q 112 502 112 540 q 112 623 172 678 q 231 732 333 732 q 370 732 405 724 q 461 708 494 668 q 526 629 526 577 q 526 529 496 482 q 484 464 474 452 q 459 435 435 417 l 404 392 q 450 328 504 268 l 511 298 q 515 317 517 331 q 519 345 519 361 q 519 378 516 398 q 550 398 584 397 q 619 396 654 395 l 701 398 l 701 339 q 701 314 694 308 q 686 301 659 301 l 638 299 q 617 299 609 275 l 576 184 l 598 158 q 629 126 644 116 q 659 105 674 103 l 702 100 q 721 100 721 55 l 721 0 q 665 7 601 7 q 536 7 480 0 l 454 31 q 384 -17 283 -17 q 274 -17 266 -17 q 254 -15 249 -15 q 161 -5 105 34 q 49 74 30 136 q 21 166 21 195 q 21 254 56 300 q 90 347 155 370 q 171 375 173 375 z m 363 476 q 385 494 398 513 q 410 532 412 544 q 413 556 413 565 q 413 586 406 600 q 400 615 390 622 q 379 628 371 631 q 363 634 351 634 q 346 634 336 632 q 297 621 297 577 q 297 570 301 554 q 305 538 312 526 q 318 514 329 499 l 352 468 z m 213 188 q 223 152 248 130 q 280 101 323 101 q 336 101 351 104 l 363 107 l 377 112 q 302 193 236 283 q 209 260 209 219 q 209 210 209 201 q 212 192 213 188 z"},"_":{"x_min":0,"x_max":418,"ha":418,"o":"m 29 -43 l 29 0 l 389 0 l 389 -43 z"},"v":{"x_min":0,"x_max":590,"ha":590,"o":"m 10 364 l 10 457 q 81 450 164 450 q 246 450 317 457 l 317 364 l 310 364 q 270 364 270 330 q 270 327 272 317 l 275 308 l 281 292 l 336 138 l 388 292 l 393 308 l 396 317 q 397 321 397 329 q 397 364 352 364 l 345 364 l 345 457 q 401 450 465 450 q 529 450 585 457 l 585 364 q 548 364 525 326 l 520 317 l 516 307 l 509 292 l 484 230 l 469 192 q 420 68 401 0 q 355 7 302 7 q 249 7 203 0 q 188 44 174 82 q 159 120 131 185 l 113 229 l 85 292 l 77 308 l 73 317 l 67 326 q 55 346 40 355 q 25 364 10 364 z"},"O":{"x_min":0,"x_max":784,"ha":784,"o":"m 18 360 q 18 514 128 622 q 237 731 392 731 q 547 731 656 622 q 709 569 738 500 q 766 431 766 358 q 766 285 738 218 q 711 150 658 96 q 604 42 536 14 q 468 -14 392 -14 q 240 -14 129 96 q 18 206 18 360 z m 269 243 q 298 195 330 164 q 361 133 392 119 q 424 105 454 105 q 508 105 548 142 q 587 178 587 234 q 587 268 581 298 q 575 327 558 384 q 538 453 492 511 q 458 554 421 580 q 403 593 382 600 q 360 607 343 607 q 308 607 276 586 q 243 565 214 529 q 206 519 202 503 q 198 487 198 469 q 198 414 228 333 q 250 274 269 243 z"},"(":{"x_min":0,"x_max":262,"ha":262,"o":"m 36 116 l 36 360 l 36 604 q 36 762 181 829 l 213 842 l 262 731 l 252 726 q 222 711 208 686 q 195 661 195 614 l 195 360 l 195 106 q 195 59 208 34 q 221 10 252 -6 l 262 -11 l 213 -121 l 181 -109 q 36 -40 36 116 z"},"C":{"x_min":0,"x_max":687,"ha":687,"o":"m 658 703 q 656 685 655 650 q 654 616 654 599 q 654 576 654 565 l 658 516 l 592 515 q 574 515 566 516 q 559 518 555 531 l 551 546 q 542 583 514 604 q 486 625 441 625 q 423 625 398 620 q 330 606 284 539 q 235 467 235 365 q 235 312 250 252 q 265 191 305 150 q 330 123 364 108 q 398 94 431 94 q 466 94 497 109 q 528 124 545 151 l 558 173 q 566 195 569 209 l 669 209 l 667 165 q 667 132 667 100 q 667 67 668 34 q 627 16 583 6 q 539 -5 475 -11 q 446 -14 418 -14 q 238 -14 128 86 q 17 187 17 341 q 17 394 32 451 q 67 579 176 654 q 289 732 455 732 q 486 732 519 729 q 552 726 590 719 l 622 713 l 639 708 z"},"W":{"x_min":0,"x_max":1056,"ha":1056,"o":"m 11 619 l 11 719 q 96 708 174 708 q 211 708 254 711 q 298 714 338 719 l 338 619 l 332 618 q 293 614 293 564 l 294 550 l 296 537 l 299 518 l 358 218 l 481 719 q 522 709 568 709 q 615 709 655 719 l 775 221 l 850 518 l 855 537 l 858 550 l 859 565 q 859 613 805 619 l 798 619 l 798 719 q 857 709 922 709 q 986 709 1045 719 l 1045 619 l 1038 618 q 998 618 975 565 l 969 550 l 967 540 l 961 518 l 838 0 l 788 8 q 761 11 733 11 q 710 11 684 8 q 658 5 634 0 l 526 409 l 420 0 q 370 10 314 10 q 258 10 208 0 l 90 518 l 85 540 l 82 550 l 77 565 q 59 609 24 617 z"},"A":{"x_min":0,"x_max":790,"ha":790,"o":"m 146 8 q 115 8 64 4 q 47 3 18 0 l 18 101 q 58 101 89 155 l 97 170 l 122 229 l 155 314 q 204 443 235 535 q 263 618 292 719 q 312 715 338 712 q 365 709 387 709 q 417 709 444 711 q 470 713 495 719 l 525 620 q 568 478 594 401 q 626 305 668 202 l 681 170 l 689 155 q 720 101 765 101 l 765 0 q 724 5 676 8 q 628 11 582 11 q 483 11 399 0 l 399 101 l 406 101 q 456 101 456 154 q 456 164 455 170 q 455 196 449 202 q 446 206 445 208 q 440 214 437 214 l 265 214 q 257 214 250 212 q 248 212 244 209 l 229 170 l 226 155 q 226 105 272 101 l 278 101 l 278 0 q 248 3 231 4 q 178 8 146 8 z m 284 341 q 279 322 316 322 l 377 322 q 407 322 402 343 l 348 532 z"},"f":{"x_min":0,"x_max":314,"ha":314,"o":"m 7 0 l 7 94 l 15 93 q 57 93 65 140 l 66 166 l 66 365 l 7 365 l 7 459 l 16 458 q 66 458 66 514 l 66 525 l 66 599 q 66 683 124 736 q 183 790 287 790 q 309 790 332 788 q 354 785 377 780 q 400 774 422 766 q 420 750 419 730 q 418 709 418 690 q 418 656 421 623 l 352 622 q 329 622 322 628 q 314 633 311 653 l 310 658 l 309 666 q 304 691 282 691 q 279 691 269 688 q 259 686 254 674 q 248 663 248 637 l 248 624 l 248 458 l 350 458 l 336 366 l 248 365 l 248 166 q 248 93 298 93 l 305 94 l 305 0 q 235 10 156 10 q 78 10 7 0 z"},"Q":{"x_min":0,"x_max":785,"ha":785,"o":"m 18 360 q 18 514 128 622 q 237 731 392 731 q 547 731 656 622 q 709 569 738 500 q 766 431 766 358 q 766 285 738 218 q 711 150 658 96 q 604 43 536 14 q 467 -14 392 -14 q 236 -14 127 95 q 18 204 18 360 z m 97 -49 q 134 -27 172 -16 q 210 -6 256 -6 q 340 -6 463 -46 l 545 -73 q 570 -80 592 -86 q 613 -91 635 -91 q 678 -91 722 -86 q 767 -82 812 -68 l 870 -47 l 904 -124 q 879 -139 850 -151 q 768 -188 710 -204 q 652 -221 600 -221 q 557 -221 515 -210 q 473 -200 418 -177 l 307 -130 q 277 -119 267 -116 q 241 -109 212 -109 q 205 -108 191 -108 q 182 -108 170 -110 q 159 -111 151 -112 q 143 -114 134 -116 q 132 -117 117 -122 z m 228 328 q 237 306 248 283 q 258 260 269 243 q 298 195 330 164 q 361 133 392 119 q 424 105 454 105 q 508 105 548 142 q 587 178 587 234 q 587 273 582 305 q 576 337 558 383 q 540 429 516 469 q 493 509 470 535 q 448 561 424 578 q 399 596 377 603 q 355 610 332 610 q 292 610 260 588 q 229 567 214 529 q 211 520 209 492 q 207 463 207 449 q 207 416 212 384 q 216 353 228 328 z"},"w":{"x_min":0,"x_max":787,"ha":787,"o":"m -9 364 l -9 457 q 57 450 134 450 q 211 450 277 457 l 277 364 l 271 364 q 243 364 243 326 l 244 317 l 246 309 l 250 292 l 275 182 l 295 249 q 323 354 339 457 q 362 454 384 452 q 407 450 430 450 q 481 450 524 457 l 575 243 l 593 177 l 623 292 l 626 308 l 628 317 l 629 326 q 629 364 595 364 l 588 364 l 588 457 q 638 450 696 450 q 750 450 796 457 l 796 364 q 762 364 742 326 l 737 317 l 734 308 l 729 292 l 709 228 l 697 189 q 664 80 646 0 q 601 7 549 7 q 498 7 453 0 q 431 122 396 249 q 367 134 343 0 q 298 7 247 7 q 196 7 151 0 l 141 37 l 129 77 q 100 178 58 292 l 52 308 l 48 317 l 43 326 q 32 346 19 355 q 6 364 -9 364 z"},"-":{"x_min":0,"x_max":413,"ha":413,"o":"m 22 184 l 23 261 l 23 298 l 22 334 q 52 334 114 330 q 176 326 207 326 q 248 326 296 329 q 345 332 390 337 q 390 325 389 299 q 388 273 388 260 l 391 184 q 293 192 207 192 q 121 192 22 184 z"},"E":{"x_min":0,"x_max":609,"ha":609,"o":"m 7 0 l 7 101 l 15 101 q 67 101 80 155 l 82 170 l 82 179 l 83 202 l 83 229 l 82 518 l 82 540 l 82 550 l 79 565 q 73 591 58 604 q 42 618 15 618 l 8 619 l 8 719 q 61 719 164 716 q 268 712 320 712 l 384 713 l 439 715 l 571 719 q 569 705 568 675 q 566 645 566 613 q 566 560 570 517 l 524 518 l 494 518 q 466 519 460 553 l 459 561 l 458 569 l 456 579 q 450 614 405 614 l 394 615 l 354 614 q 285 614 285 531 l 284 515 l 284 462 q 284 431 291 421 q 298 411 320 409 l 327 409 l 346 409 l 352 409 l 360 410 q 376 410 386 425 l 389 429 l 391 434 l 395 442 l 397 445 q 400 451 411 456 l 417 457 l 420 458 l 436 458 l 487 458 l 483 361 l 486 262 l 441 262 q 411 262 399 275 l 397 279 l 393 285 l 390 291 l 387 296 l 379 308 q 366 318 347 318 l 320 318 l 313 317 q 285 311 285 284 l 284 272 l 284 265 l 284 199 q 284 147 296 127 q 308 107 340 102 l 352 101 l 386 100 q 418 100 434 111 q 450 122 457 149 l 460 160 q 471 208 512 208 l 573 208 q 569 159 568 139 q 568 119 568 107 q 568 81 569 54 q 570 26 573 0 l 523 2 l 422 7 l 181 7 l 60 2 z"},"s":{"x_min":0,"x_max":437,"ha":437,"o":"m 22 159 l 80 161 l 85 161 l 96 160 q 114 160 118 146 l 120 141 l 123 132 l 125 126 l 128 120 q 133 108 144 101 q 155 94 177 91 l 198 91 q 215 91 224 98 q 237 104 237 119 q 237 127 232 134 q 226 140 219 144 q 212 147 192 154 l 176 160 l 150 169 q 87 191 55 228 q 23 265 23 316 q 23 332 28 354 q 42 410 90 441 q 143 475 231 475 q 266 475 310 468 q 355 461 393 445 q 392 427 392 411 q 391 395 391 375 l 391 303 l 333 303 q 313 303 306 306 q 300 310 294 322 l 289 335 q 277 368 244 373 q 240 374 237 374 q 232 374 230 374 q 220 374 207 368 q 194 363 197 346 q 198 339 204 332 q 211 326 228 319 l 242 314 l 258 308 l 284 298 l 294 294 l 318 284 q 420 240 420 154 q 420 147 418 136 q 417 126 416 121 l 404 87 q 382 40 330 12 q 278 -16 201 -16 q 153 -16 96 -4 q 61 3 22 17 z"},"l":{"x_min":0,"x_max":314,"ha":314,"o":"m 7 655 l 7 720 q 93 742 168 778 l 223 806 l 246 788 l 246 166 q 246 93 299 93 l 307 94 l 307 0 q 237 7 157 7 q 77 7 7 0 l 7 94 l 15 93 q 58 93 64 140 l 65 166 l 65 562 q 65 595 59 608 q 53 621 36 624 l 26 626 q 10 630 7 649 z"},"8":{"x_min":0,"x_max":611,"ha":611,"o":"m 157 391 q 115 408 91 445 q 67 482 67 531 q 67 548 69 561 q 71 574 77 592 q 95 647 145 683 q 195 719 271 727 q 277 727 286 728 q 296 729 306 729 q 314 729 323 729 q 335 727 340 727 q 415 719 466 682 q 517 646 534 592 q 538 580 541 561 q 544 542 544 530 q 544 481 520 444 q 496 407 454 391 q 462 388 476 382 q 489 376 497 371 q 583 318 583 214 q 583 195 578 168 q 562 90 506 45 q 450 0 352 -11 q 337 -13 306 -13 q 294 -13 288 -13 q 281 -13 272 -12 q 264 -11 259 -11 q 162 0 106 46 q 49 91 34 168 q 29 195 29 216 q 29 265 51 305 q 73 345 114 371 q 126 379 134 382 q 141 386 157 391 z m 306 441 q 332 441 350 460 q 367 478 371 512 q 372 519 372 531 q 372 574 353 598 q 334 622 306 622 q 280 622 260 594 q 239 567 239 533 q 239 495 254 468 q 270 441 306 441 z m 306 101 q 345 101 368 130 q 392 159 392 215 q 392 273 368 304 q 345 336 306 336 q 300 336 278 332 q 257 329 238 298 q 219 268 219 215 q 219 160 242 130 q 266 101 306 101 z"},"\\":{"x_min":0,"x_max":328,"ha":328,"o":"m 29 720 l 173 720 l 299 0 l 155 0 z"},"e":{"x_min":0,"x_max":531,"ha":531,"o":"m 489 226 q 475 229 472 230 q 466 231 454 231 q 430 231 397 220 l 232 168 l 236 159 q 267 104 328 104 q 339 104 356 107 q 372 110 387 115 q 402 120 432 136 l 461 154 l 513 87 l 493 67 q 460 34 420 15 q 379 -4 331 -11 q 321 -13 300 -14 q 280 -15 278 -15 q 165 -15 91 54 q 17 124 17 224 q 17 236 19 250 q 21 265 24 279 q 27 293 32 307 q 38 321 44 336 q 73 392 126 428 q 178 463 249 472 q 261 473 270 474 q 278 474 284 474 q 292 474 296 474 q 392 474 445 413 q 493 358 493 272 q 493 258 493 244 q 490 231 489 226 z m 299 339 q 289 368 259 368 q 245 368 231 359 q 204 342 204 286 l 206 272 l 272 293 q 301 302 301 325 q 301 334 299 339 z"},"b":{"x_min":0,"x_max":587,"ha":587,"o":"m 5 720 q 91 742 166 778 l 221 806 l 243 787 l 243 434 l 252 440 q 290 464 318 468 q 347 473 365 473 q 452 473 510 408 q 567 344 567 238 q 567 215 564 191 q 555 122 526 76 q 498 30 451 5 q 410 -16 364 -16 q 355 -16 339 -14 q 303 -9 280 2 q 258 14 245 33 l 245 0 l 188 6 q 142 6 96 6 q 51 5 6 0 l 6 94 l 13 93 q 50 93 60 131 l 65 143 l 65 562 q 65 595 58 608 q 51 621 34 624 l 24 626 q 8 629 5 651 z m 253 148 q 259 131 274 121 q 288 111 306 111 q 325 111 342 124 q 359 136 368 159 q 378 182 378 222 q 378 233 378 239 q 378 245 377 254 q 376 262 376 266 q 371 308 356 332 q 342 356 326 361 q 310 366 298 366 q 246 366 246 293 l 246 191 q 246 185 248 170 q 250 155 253 148 z"},"%":{"x_min":0,"x_max":769,"ha":769,"o":"m 31 38 l 84 -13 l 738 678 l 683 730 z m 202 728 q 281 728 336 676 q 392 623 392 546 q 392 467 340 412 q 287 356 210 356 q 131 356 76 408 q 20 461 20 538 q 20 617 72 672 q 125 728 202 728 z m 560 358 q 639 358 694 306 q 750 253 750 176 q 750 97 698 42 q 645 -14 568 -14 q 489 -14 434 38 q 378 91 378 168 q 378 247 430 302 q 483 358 560 358 z m 523 119 q 530 92 538 82 q 546 72 562 72 q 578 72 586 81 q 594 90 601 119 q 602 129 602 144 q 603 158 603 172 q 603 216 601 226 q 594 252 586 262 q 577 272 562 272 q 546 272 538 263 q 530 254 523 226 q 522 222 522 203 q 522 184 522 172 q 522 147 522 135 q 522 123 523 119 z m 163 491 q 170 464 178 454 q 186 444 202 444 q 218 444 226 453 q 234 462 241 491 q 242 501 242 516 q 243 530 243 544 q 243 588 241 598 q 234 624 226 634 q 217 644 202 644 q 186 644 178 635 q 170 626 163 598 q 162 594 162 575 q 162 556 162 544 q 162 519 162 507 q 162 495 163 491 z"},"m":{"x_min":0,"x_max":918,"ha":918,"o":"m 7 324 l 7 389 q 86 408 168 447 q 182 453 196 460 q 214 470 223 475 l 245 457 l 245 432 l 251 434 l 256 437 l 267 442 l 282 448 q 326 467 355 470 q 384 474 402 474 q 441 474 474 462 q 506 450 533 427 l 538 423 l 541 421 l 546 424 l 553 428 l 568 436 l 580 443 q 622 463 655 468 q 688 472 709 472 q 780 472 818 434 q 857 397 857 334 l 857 166 l 857 140 q 857 132 862 121 q 874 93 906 93 l 914 94 l 914 0 q 845 7 766 7 q 688 7 618 0 l 618 94 l 626 93 q 665 93 675 131 l 677 140 l 677 148 l 678 166 l 678 281 q 678 344 623 344 q 618 344 606 342 q 553 333 553 277 l 553 166 l 553 149 l 554 140 l 556 130 q 564 93 604 93 l 611 94 l 611 0 q 542 7 462 7 q 383 7 314 0 l 314 94 l 321 93 q 358 93 368 131 l 370 140 l 370 149 l 371 166 l 371 268 l 371 299 q 371 310 361 324 q 346 345 314 345 q 297 345 284 340 q 247 326 247 277 l 247 166 q 247 94 297 94 l 305 94 l 305 0 q 275 3 242 4 q 208 5 166 5 l 82 5 l 9 0 l 9 94 l 16 93 q 58 93 64 140 l 65 166 l 65 230 q 65 263 59 276 q 53 289 36 293 l 26 295 q 10 299 7 318 z"},",":{"x_min":0,"x_max":264,"ha":264,"o":"m 64 -164 l 34 -94 l 48 -90 q 116 -66 130 -15 q 86 -15 54 16 q 22 47 22 92 q 22 139 54 170 q 85 202 128 202 q 172 202 204 170 q 245 129 245 64 q 245 38 239 14 q 233 -11 218 -38 q 200 -72 171 -99 q 142 -126 99 -148 q 87 -155 82 -157 q 75 -160 64 -164 z"},"n":{"x_min":0,"x_max":610,"ha":610,"o":"m 7 324 l 7 389 q 86 408 168 447 q 182 453 196 460 q 214 470 223 475 l 245 458 l 245 430 l 250 432 l 261 438 l 277 445 l 290 451 l 310 458 q 332 465 352 468 q 371 472 393 472 q 415 472 426 470 q 494 459 521 424 q 548 390 548 315 l 548 166 q 548 93 598 93 l 606 94 l 606 0 l 312 0 l 312 94 l 319 93 q 356 93 366 131 l 367 140 l 368 149 l 368 166 l 368 273 q 368 291 366 301 q 365 311 355 322 q 340 339 313 339 q 299 339 280 331 q 245 316 245 265 l 245 166 l 245 148 l 246 140 l 247 131 q 257 94 296 94 l 303 94 l 303 0 q 265 3 229 5 q 193 7 156 7 q 124 7 88 6 q 52 4 8 0 l 8 94 l 15 93 q 58 93 64 140 l 65 166 l 65 230 q 65 263 59 276 q 53 289 36 293 l 26 295 q 10 299 7 318 z"},"h":{"x_min":0,"x_max":611,"ha":611,"o":"m 7 655 l 7 720 q 93 742 168 778 l 223 806 l 245 788 l 245 432 l 252 435 l 258 438 l 269 444 l 281 449 l 303 457 q 359 476 404 476 q 473 476 511 433 q 549 390 549 317 l 549 166 l 549 144 l 549 140 l 551 131 q 561 93 599 93 l 607 94 l 607 0 q 577 3 544 4 q 510 5 468 5 l 386 5 l 313 0 l 313 94 l 320 93 q 368 93 368 166 l 368 260 q 368 341 317 341 q 307 341 293 338 q 252 328 246 274 l 246 264 l 246 166 l 246 150 q 246 93 298 93 l 305 94 l 305 0 q 236 7 157 7 q 78 7 8 0 l 8 94 l 15 93 q 52 93 62 131 l 64 140 l 64 147 l 65 166 l 65 562 q 65 595 59 608 q 53 621 36 624 l 26 626 q 10 630 7 649 z"},"z":{"x_min":0,"x_max":482,"ha":482,"o":"m 14 136 l 241 365 l 186 367 q 147 367 133 340 l 130 332 l 127 326 l 124 318 l 121 311 q 112 297 89 297 l 78 297 l 28 298 q 28 318 29 358 q 30 398 30 419 l 29 457 q 73 457 168 454 q 263 451 312 451 l 467 457 l 466 427 l 465 397 l 465 334 l 233 100 l 311 99 q 353 99 362 118 l 364 124 l 368 132 q 379 165 417 165 l 466 164 l 466 121 l 466 77 l 467 39 l 468 0 l 421 2 l 368 5 q 313 5 216 4 q 118 3 67 3 l 14 0 l 15 31 l 15 62 l 15 99 z"},"B":{"x_min":0,"x_max":649,"ha":649,"o":"m 7 619 l 7 719 q 35 716 56 714 q 77 712 92 712 q 123 712 181 711 q 239 710 263 710 l 333 715 q 351 715 371 716 q 391 716 413 717 q 425 717 431 716 q 524 704 572 660 q 620 615 620 546 q 620 490 586 448 q 553 407 490 388 l 472 384 l 492 380 q 562 364 602 315 q 643 266 643 200 q 643 181 638 158 q 605 -3 363 -3 l 319 0 l 246 7 q 224 8 205 10 q 186 11 160 11 q 122 11 91 8 q 60 6 8 0 l 8 101 l 15 101 q 64 105 76 154 l 78 170 l 79 550 l 76 565 q 66 614 15 618 z m 326 423 q 402 423 411 505 q 412 511 412 523 q 412 553 400 575 q 387 597 365 608 l 349 613 q 337 616 328 616 q 284 616 284 557 l 284 468 q 289 447 291 444 q 301 423 326 423 z m 333 100 q 337 99 346 99 q 381 99 404 129 q 426 159 426 211 q 426 246 410 269 q 395 292 372 302 q 348 311 330 311 q 308 311 295 300 q 282 289 279 270 l 279 256 l 279 168 q 279 111 333 100 z"},"K":{"x_min":0,"x_max":814,"ha":814,"o":"m 7 0 l 7 101 l 15 101 q 65 105 77 155 l 79 170 l 79 175 l 79 202 l 79 231 l 80 518 l 80 538 l 79 550 l 77 565 q 65 614 14 618 l 7 619 l 7 719 q 50 714 94 712 q 138 711 203 711 l 268 711 l 355 719 l 355 619 l 348 618 q 284 618 284 518 l 284 388 l 423 535 l 440 554 l 445 558 l 452 568 q 464 586 464 596 q 464 608 446 615 l 435 618 q 425 621 423 634 l 422 642 l 422 659 l 422 719 q 508 708 586 708 q 624 708 666 711 q 708 714 749 719 l 749 619 l 738 618 q 704 618 672 604 q 641 591 610 565 l 592 550 l 584 540 l 563 518 l 534 485 l 682 202 l 694 179 l 699 170 l 709 155 q 728 128 748 114 q 769 101 790 101 l 790 0 q 706 10 613 10 q 519 10 435 0 l 435 101 l 441 101 q 476 104 476 133 q 476 144 472 156 l 466 170 l 460 182 l 451 202 l 384 331 l 285 230 l 285 202 l 285 170 l 287 157 q 297 105 347 101 l 354 101 l 354 0 q 273 10 181 10 q 90 10 7 0 z"},"R":{"x_min":0,"x_max":710,"ha":710,"o":"m 7 619 l 7 719 l 91 712 q 109 712 117 712 q 132 712 140 712 q 153 712 160 712 q 171 712 177 712 q 187 712 191 712 q 199 712 204 712 q 224 712 244 712 q 263 712 281 713 l 310 715 l 339 718 q 360 718 378 718 q 396 718 412 719 q 419 719 427 719 q 437 717 442 717 q 532 702 580 652 q 629 603 629 526 q 629 458 599 410 q 569 361 517 343 l 507 340 l 498 338 l 503 333 l 518 321 q 540 303 554 288 q 568 272 583 248 l 593 233 l 630 170 l 661 127 q 683 103 694 102 l 702 101 l 702 0 q 653 10 598 10 q 543 10 493 0 l 468 40 q 448 72 436 94 q 421 122 404 159 l 357 260 l 352 269 q 341 287 333 294 q 325 301 318 302 q 299 304 291 296 q 283 287 283 262 l 283 202 q 283 150 298 127 q 313 104 348 101 l 356 101 l 356 0 q 317 5 271 8 q 225 11 181 11 q 141 11 96 8 q 51 5 8 0 l 8 101 l 15 101 q 66 105 78 154 l 80 170 q 80 216 81 349 q 82 482 82 501 q 82 523 82 536 q 82 549 82 554 q 82 559 82 564 q 81 564 81 565 q 69 613 15 618 z m 333 415 q 376 415 400 442 q 425 468 425 521 q 425 567 401 591 q 377 615 337 615 q 284 615 284 550 l 284 462 q 284 438 294 426 q 305 415 333 415 z"},"T":{"x_min":0,"x_max":647,"ha":647,"o":"m 12 719 l 58 717 l 152 713 l 512 713 l 597 717 l 647 719 q 647 702 647 693 q 647 678 647 670 q 647 657 647 650 q 647 639 647 633 q 647 623 647 618 q 647 609 647 605 q 647 597 647 593 q 647 575 646 558 q 646 540 646 523 q 646 516 646 513 l 541 513 l 540 524 q 537 550 533 564 q 529 579 523 588 q 505 614 479 614 l 463 613 q 435 613 431 571 l 430 558 l 430 202 l 430 182 l 431 170 l 433 154 q 443 105 494 101 l 501 101 l 501 0 q 418 10 327 10 q 235 10 152 0 l 152 101 l 160 101 q 194 104 210 127 q 225 150 225 202 l 225 228 l 226 553 q 226 588 219 601 q 212 614 193 614 l 176 613 q 151 613 132 585 q 129 579 125 565 q 121 551 117 526 l 116 514 l 12 515 l 15 615 z"},"P":{"x_min":0,"x_max":614,"ha":614,"o":"m 7 619 l 7 719 l 90 714 l 240 714 l 246 714 l 288 717 l 320 719 q 456 719 534 661 q 613 603 613 509 q 613 492 612 482 q 611 472 608 456 q 604 441 599 428 q 594 415 587 402 q 557 348 499 317 q 441 286 360 286 l 337 286 l 329 286 q 302 286 292 280 q 283 273 283 252 l 283 202 q 283 102 342 102 l 356 101 l 356 0 q 276 10 186 10 q 92 10 8 0 l 8 101 l 16 101 q 66 105 78 155 l 81 170 q 82 260 82 340 q 83 419 84 527 q 84 542 84 551 q 84 560 83 565 q 70 618 15 618 z m 322 393 q 338 393 351 398 q 364 402 377 413 q 390 424 398 442 q 406 460 410 491 q 411 498 411 512 q 411 526 409 533 q 400 593 362 609 q 345 615 332 615 q 307 615 296 602 q 284 588 284 563 l 284 441 q 284 393 322 393 z"},"t":{"x_min":0,"x_max":314,"ha":314,"o":"m 4 367 l 4 437 q 42 449 72 467 q 120 494 150 521 q 179 548 201 582 l 227 570 l 227 459 l 321 459 l 304 366 l 227 364 l 227 187 l 229 155 q 234 111 274 111 q 287 111 297 116 l 305 120 l 317 129 l 317 21 l 302 12 q 257 -10 209 -15 q 122 -15 84 16 q 46 48 46 124 l 46 312 l 46 330 l 45 338 l 43 347 q 36 366 14 366 z"},"M":{"x_min":0,"x_max":1070,"ha":1070,"o":"m 11 0 l 11 101 l 18 101 q 59 106 80 154 l 86 170 l 88 180 l 94 201 l 214 719 q 238 714 265 711 q 292 708 319 708 q 370 708 423 719 l 526 311 l 633 719 q 655 715 684 712 q 712 709 735 709 q 763 709 790 712 l 837 719 l 957 202 l 963 179 l 965 170 l 971 154 q 992 106 1039 101 l 1046 101 l 1046 0 q 1030 2 1002 5 q 974 8 959 8 l 862 8 q 808 8 776 7 q 743 6 700 0 l 700 101 l 707 101 q 764 101 764 155 q 764 165 763 170 l 761 182 l 757 202 l 692 501 l 578 0 q 535 10 485 10 q 436 10 392 0 l 278 496 l 210 202 l 206 182 l 204 170 q 203 165 203 155 q 203 106 265 101 l 272 101 l 272 0 q 211 10 142 10 q 72 10 11 0 z"},"g":{"x_min":0,"x_max":590,"ha":590,"o":"m 341 421 l 341 457 l 400 452 l 469 452 q 479 452 483 452 q 491 452 496 452 q 517 452 540 453 q 562 454 583 457 l 583 364 l 576 364 q 549 364 536 346 q 523 329 523 292 l 523 -52 q 523 -153 460 -213 q 392 -277 268 -277 q 192 -277 91 -250 l 62 -242 q 65 -206 65 -169 q 65 -150 64 -131 q 64 -112 64 -93 q 64 -86 64 -82 l 153 -82 q 175 -82 179 -101 l 186 -129 q 194 -168 244 -168 l 259 -168 q 332 -168 341 -80 l 342 -62 l 342 24 q 318 6 288 -4 q 259 -14 222 -14 q 132 -14 75 51 q 18 116 18 230 q 18 340 77 408 q 136 475 219 475 q 235 475 253 472 q 284 465 301 455 q 318 445 341 421 z m 341 301 q 341 332 325 349 q 309 366 283 366 q 273 366 261 363 q 238 356 224 332 q 210 307 210 261 l 210 218 q 210 169 224 146 q 237 122 263 115 q 269 113 281 113 q 335 113 341 187 l 342 200 l 342 289 z"},"j":{"x_min":0,"x_max":288,"ha":288,"o":"m -101 -104 q -96 -147 -96 -183 q -96 -213 -98 -229 q -100 -245 -100 -253 l -87 -257 l -77 -259 q -70 -261 -53 -263 q -36 -265 -14 -268 q 7 -271 44 -271 q 152 -271 201 -223 q 250 -175 250 -78 l 250 457 l 227 475 q 213 467 207 464 q 190 455 172 447 q 136 430 94 414 q 51 398 11 389 l 11 324 l 11 318 q 14 299 30 295 l 40 293 q 57 289 63 276 q 69 264 69 230 l 69 -106 l 68 -130 q 68 -170 39 -170 q 23 -170 14 -158 q 13 -156 12 -151 q 12 -150 11 -147 l 10 -135 l 10 -130 l 9 -125 q 6 -104 -17 -104 l -30 -103 l -44 -103 z m 60 590 q 60 630 86 660 q 113 690 152 690 q 176 690 193 684 q 210 679 227 665 q 259 636 259 592 q 259 554 230 524 q 202 493 165 493 q 122 493 91 520 q 60 548 60 590 z"},"i":{"x_min":0,"x_max":311,"ha":311,"o":"m 7 0 q 77 7 156 7 q 235 7 304 0 l 304 94 l 296 93 q 247 93 247 166 l 247 457 l 226 475 l 171 447 q 89 408 10 389 l 10 324 l 10 318 q 13 299 28 295 l 38 293 q 55 289 61 276 q 67 264 67 230 l 67 164 l 67 140 q 59 93 15 93 l 7 94 z m 56 595 q 56 635 85 663 q 114 691 155 691 q 194 691 224 662 q 254 633 254 592 q 254 551 225 522 q 196 494 152 494 q 111 494 84 524 q 56 553 56 595 z"},"y":{"x_min":0,"x_max":588,"ha":588,"o":"m 4 364 l 4 457 l 81 452 l 168 452 q 180 452 186 452 q 197 452 202 452 q 211 452 216 452 q 224 452 228 452 q 249 452 270 453 q 291 454 312 457 l 312 364 l 306 364 q 270 364 275 326 l 277 317 l 280 307 l 285 292 l 333 163 l 384 292 l 389 307 l 393 317 q 395 322 395 332 q 395 364 354 364 l 346 364 l 346 457 q 402 450 465 450 q 529 450 584 457 l 584 364 q 566 364 552 356 q 537 347 524 326 l 518 317 l 515 310 l 507 292 l 460 186 l 455 176 l 426 103 l 405 50 l 390 11 l 381 -14 l 360 -72 q 349 -102 349 -123 q 349 -155 376 -160 q 402 -165 406 -174 q 410 -183 410 -202 l 410 -259 q 351 -251 298 -251 q 247 -251 189 -259 l 176 -235 l 223 -116 q 237 -82 237 -67 q 237 -56 233 -45 l 222 -19 l 82 292 l 73 310 l 70 317 l 64 326 q 52 345 36 354 q 20 364 4 364 z"},".":{"x_min":0,"x_max":261,"ha":261,"o":"m 22 92 q 22 139 54 169 q 86 201 131 201 q 176 201 208 169 q 239 137 239 91 q 239 45 208 14 q 176 -17 130 -17 q 85 -17 54 15 q 38 30 30 50 q 22 69 22 92 z"},"p":{"x_min":0,"x_max":587,"ha":587,"o":"m 7 -258 l 7 -164 l 15 -164 q 54 -164 64 -127 l 66 -117 l 67 -94 l 67 230 q 67 263 61 276 q 55 289 38 293 l 28 295 q 12 299 9 318 l 9 324 l 9 389 q 88 408 170 447 q 184 453 198 460 q 216 470 225 475 l 246 457 l 246 430 q 277 460 330 470 q 347 474 369 474 q 453 474 511 408 q 569 342 569 238 q 569 227 568 212 q 566 196 565 188 q 551 91 497 38 q 443 -15 365 -15 q 340 -15 324 -12 q 307 -8 288 1 l 268 11 l 264 13 q 256 17 251 10 q 246 3 246 -13 l 246 -92 q 246 -130 258 -147 q 270 -164 297 -164 l 304 -164 l 304 -258 q 235 -251 157 -251 z m 246 161 q 249 131 264 115 q 279 99 303 99 q 315 99 321 101 q 347 107 362 130 q 377 154 377 197 q 378 203 378 215 q 378 227 378 233 q 378 241 378 245 q 378 281 368 303 q 358 325 342 336 q 325 347 307 347 q 269 347 255 312 q 251 303 248 292 q 246 280 246 264 l 246 248 l 246 169 z"},"X":{"x_min":0,"x_max":746,"ha":746,"o":"m 13 0 l 13 101 l 19 101 l 24 102 q 39 106 53 117 q 72 131 92 155 l 104 170 l 111 180 l 127 202 l 244 368 l 136 518 l 120 541 l 113 550 l 101 564 q 60 611 28 617 l 23 618 l 16 619 l 16 719 l 108 714 q 170 714 209 715 q 364 719 379 719 l 379 619 l 373 619 q 349 616 349 597 q 349 584 360 562 l 367 550 l 374 539 l 388 518 l 420 471 l 452 518 l 465 537 l 473 550 l 480 562 q 489 582 489 593 q 489 614 455 619 l 449 619 l 449 719 q 508 712 576 712 q 643 712 702 719 l 702 619 l 696 618 l 691 617 q 675 614 658 602 q 641 589 620 564 l 608 549 l 600 539 l 585 518 l 486 378 l 610 202 l 626 180 l 633 170 l 645 155 q 664 132 681 119 q 698 106 711 102 l 716 101 l 721 101 l 721 0 q 641 7 549 7 q 456 7 376 0 l 376 101 l 381 101 q 405 104 405 122 q 405 132 392 158 l 385 170 l 383 173 l 362 202 l 312 270 l 264 202 l 251 183 l 243 170 l 235 157 q 227 138 227 127 q 227 104 262 101 l 268 101 l 268 0 q 209 7 141 7 q 73 7 13 0 z"},"*":{"x_min":0,"x_max":501,"ha":501,"o":"m 22 460 l 191 516 l 24 571 q 75 618 95 683 l 224 566 l 179 732 q 217 721 251 721 q 267 721 286 724 q 304 727 322 732 l 277 566 l 406 683 q 426 618 477 571 l 310 516 l 479 460 q 437 426 417 374 l 408 341 l 278 464 l 319 302 q 303 305 286 307 q 268 309 251 309 q 236 309 219 308 q 202 306 182 302 l 223 464 l 93 341 l 84 374 q 64 426 22 460 z"},"Y":{"x_min":0,"x_max":699,"ha":699,"o":"m 11 619 l 11 719 q 50 715 82 714 q 115 712 168 712 l 262 712 l 346 719 l 346 619 l 340 619 q 311 616 311 591 q 311 580 317 563 l 323 550 l 329 538 l 340 518 l 402 406 l 465 518 l 474 535 l 482 550 q 492 569 492 584 q 492 612 458 617 l 440 619 l 440 719 q 500 709 567 709 q 635 709 695 719 l 695 619 q 653 619 615 565 l 606 550 l 600 539 l 588 518 l 459 274 l 459 202 l 460 188 q 460 145 476 124 q 493 104 524 101 l 532 101 l 532 0 q 511 3 483 6 q 455 8 444 8 l 346 8 q 292 8 258 7 q 225 6 181 0 l 181 101 l 197 102 l 201 104 l 210 107 q 223 113 228 118 q 232 124 248 156 l 249 159 l 255 179 l 254 273 l 115 518 l 97 550 l 89 562 q 67 592 48 606 q 30 619 11 619 z"},"c":{"x_min":0,"x_max":487,"ha":487,"o":"m 461 454 q 461 430 460 380 q 459 331 459 307 l 396 306 l 383 306 l 374 307 q 362 308 354 321 l 353 324 l 349 334 l 346 340 q 339 352 330 357 q 316 367 295 367 q 281 367 273 365 q 239 359 220 334 q 200 308 200 265 q 200 241 209 209 q 222 163 257 136 q 292 109 337 109 q 363 109 389 118 q 415 127 442 147 l 451 153 l 501 86 l 477 64 q 443 35 404 16 q 364 -2 325 -9 q 300 -13 270 -13 q 160 -13 89 53 q 18 119 18 219 q 18 330 96 401 q 178 475 315 475 q 344 475 372 472 q 399 469 419 465 q 439 461 461 454 z"},"!":{"x_min":0,"x_max":338,"ha":338,"o":"m 82 93 q 82 49 113 17 q 144 -15 189 -15 q 235 -15 265 17 q 281 32 289 52 q 297 71 297 93 q 297 138 266 170 q 234 201 190 201 q 145 201 114 170 q 82 138 82 93 z m 36 645 l 36 712 l 88 723 q 184 746 274 786 l 302 764 q 277 651 269 596 q 254 497 254 394 q 254 365 252 299 q 250 233 250 229 l 128 229 l 124 290 q 124 386 117 445 q 110 504 91 573 q 85 592 80 599 q 74 606 60 611 l 54 613 l 48 615 q 36 618 36 645 z"},"/":{"x_min":0,"x_max":324,"ha":324,"o":"m 7 -13 l 248 730 l 317 730 l 78 -13 z"},"[":{"x_min":0,"x_max":258,"ha":258,"o":"m 36 -123 l 36 843 q 90 834 145 834 q 171 834 200 837 q 230 840 258 845 l 258 751 l 246 751 q 236 751 229 748 q 222 744 212 734 q 202 725 199 714 q 196 703 196 672 l 196 48 q 196 22 198 10 q 199 -3 214 -17 q 228 -31 246 -31 l 258 -31 l 258 -125 q 201 -115 138 -115 q 98 -115 82 -116 q 65 -118 36 -123 z"},"6":{"x_min":0,"x_max":609,"ha":609,"o":"m 513 701 q 510 674 508 639 q 507 604 507 562 l 507 516 l 421 516 q 398 516 398 537 l 395 561 q 392 589 382 600 q 373 612 360 614 q 346 617 338 617 q 292 617 261 573 q 225 522 225 430 l 225 414 l 238 427 q 265 449 298 461 q 331 473 368 473 q 387 473 416 468 q 445 464 480 444 q 514 423 540 389 q 586 331 586 249 q 586 208 572 161 q 547 79 484 32 q 420 -14 326 -14 q 295 -14 262 -8 q 156 10 90 97 q 21 188 21 320 q 21 383 40 460 q 60 538 110 600 q 159 662 228 695 q 309 733 376 733 q 438 733 513 701 z m 229 194 q 236 153 253 131 q 270 109 296 102 q 308 99 320 99 q 355 99 378 126 q 400 153 400 202 q 400 216 400 222 q 400 236 398 243 q 392 284 374 308 q 356 333 330 340 q 318 343 306 343 q 270 343 248 314 q 225 286 225 233 z"},"r":{"x_min":0,"x_max":444,"ha":444,"o":"m 7 0 l 7 94 l 15 93 q 58 93 66 140 l 66 166 l 66 161 l 66 230 q 66 263 60 276 q 54 289 38 293 l 27 295 q 12 299 9 318 l 9 324 l 9 389 q 88 408 170 447 q 184 453 198 460 q 216 470 225 475 l 248 457 l 248 392 q 254 405 261 414 q 268 424 280 436 q 323 474 375 474 q 405 474 434 459 l 444 454 q 441 413 441 374 q 441 324 445 284 l 379 284 l 367 284 l 362 285 l 357 286 q 349 289 346 295 l 341 307 q 332 331 310 331 q 303 331 292 328 q 261 318 251 274 l 249 262 l 248 254 l 248 242 l 248 166 l 248 142 l 250 131 q 258 93 297 93 l 305 94 l 305 0 q 235 7 156 7 q 77 7 7 0 z"},"2":{"x_min":0,"x_max":611,"ha":611,"o":"m 42 0 l 46 39 q 58 126 92 183 q 126 240 214 319 l 241 343 q 302 395 327 427 q 352 459 359 493 l 362 511 q 363 517 363 527 q 363 568 343 592 q 323 616 287 622 q 281 623 269 623 q 257 623 250 622 q 196 613 186 569 l 184 557 l 182 543 l 180 535 l 177 521 q 175 509 167 504 q 159 499 135 497 l 124 497 l 68 498 q 68 513 68 521 q 68 534 68 541 q 68 553 68 558 q 68 568 68 573 q 68 582 68 587 q 68 595 68 599 q 68 617 68 635 q 67 653 67 671 q 67 678 67 681 l 88 688 q 146 708 203 718 q 260 729 308 729 q 411 729 477 686 q 543 643 562 574 q 571 539 571 509 q 571 447 533 400 q 495 352 411 311 l 388 300 l 363 289 q 329 273 310 260 q 291 247 272 229 q 261 219 250 206 q 239 192 230 177 l 222 163 l 263 163 q 448 163 568 178 l 568 0 l 529 2 l 490 4 l 406 6 q 339 6 219 3 q 99 0 42 0 z"},"{":{"x_min":0,"x_max":367,"ha":367,"o":"m 29 360 q 58 360 77 380 q 96 400 96 432 l 96 742 q 96 790 122 816 q 148 842 195 842 l 338 842 l 338 756 l 325 756 q 295 756 282 745 q 269 734 269 708 l 269 454 q 269 390 207 366 l 180 360 l 207 354 q 235 343 252 319 q 269 295 269 266 l 269 12 q 269 -36 325 -36 l 338 -36 l 338 -122 l 195 -122 q 148 -122 122 -96 q 96 -70 96 -22 l 96 288 q 96 318 77 339 q 58 360 29 360 z"},"9":{"x_min":0,"x_max":611,"ha":611,"o":"m 96 12 q 103 76 103 153 l 102 199 l 166 200 q 196 200 206 192 q 215 183 215 156 q 215 134 241 115 q 261 100 270 100 q 310 100 337 131 q 368 166 379 233 q 381 245 382 264 q 384 284 384 301 l 371 289 q 318 244 246 244 q 228 244 205 247 q 125 258 76 318 q 26 377 26 467 q 26 492 28 505 q 38 592 92 650 q 145 707 235 724 q 259 729 293 729 q 421 729 504 638 q 588 546 588 396 q 588 365 584 331 q 580 297 571 262 q 542 147 464 74 q 385 2 272 -13 q 260 -15 246 -16 q 232 -17 219 -17 q 188 -17 160 -10 q 133 -4 96 12 z m 211 472 q 218 428 234 405 q 251 382 278 376 q 290 373 302 373 q 337 373 360 401 q 384 429 384 478 q 384 484 383 492 q 382 500 382 504 l 379 524 q 365 600 313 614 q 301 617 289 617 q 254 617 231 590 q 208 562 208 514 z"}," ":{"x_min":0,"x_max":290,"ha":290,"o":""},"I":{"x_min":0,"x_max":365,"ha":365,"o":"m 7 0 l 7 101 l 14 101 q 64 105 76 154 l 78 170 l 79 182 l 79 202 l 79 230 l 80 518 l 80 536 l 80 550 q 80 618 16 618 l 9 619 l 9 719 q 12 719 63 714 q 85 712 96 712 l 194 712 q 208 712 215 712 q 292 712 358 719 l 358 619 l 351 618 q 286 618 286 533 l 286 518 l 286 202 l 286 181 l 286 170 q 286 138 302 120 q 319 101 347 101 l 355 101 l 355 0 q 272 10 181 10 q 90 10 7 0 z"},"H":{"x_min":0,"x_max":796,"ha":796,"o":"m 7 0 l 7 101 l 15 101 q 66 105 78 155 l 80 170 l 81 180 l 81 202 l 81 518 l 81 539 l 80 550 l 78 565 q 66 614 16 618 l 9 619 l 9 719 q 49 714 94 711 q 138 708 182 708 q 222 708 268 711 q 313 714 356 719 l 356 619 l 348 618 q 287 618 281 550 l 282 518 l 282 458 q 282 435 290 428 q 297 422 322 422 l 398 421 l 475 422 q 500 422 508 428 q 515 435 515 458 l 515 518 l 515 550 l 513 564 q 508 589 492 604 q 476 618 448 618 l 440 619 l 440 719 q 479 714 525 711 q 571 708 614 708 q 654 708 699 711 q 744 714 787 719 l 787 619 l 780 618 q 730 614 718 565 l 716 550 l 716 539 l 715 518 l 715 202 l 716 180 l 716 170 l 719 155 q 730 101 782 101 l 789 101 l 789 0 q 750 5 704 8 q 658 11 615 11 q 576 11 531 8 q 486 5 444 0 l 444 101 l 452 101 q 481 101 498 119 q 515 137 515 170 l 515 202 l 515 276 l 514 286 q 511 301 504 306 q 496 312 479 312 l 398 312 l 317 312 q 287 312 282 286 l 281 276 l 281 202 l 281 170 l 282 155 q 293 105 344 101 l 352 101 l 352 0 q 264 11 182 11 q 142 11 96 8 q 51 5 7 0 z"},"4":{"x_min":0,"x_max":611,"ha":611,"o":"m 17 321 q 115 426 193 520 q 271 615 345 716 q 383 709 427 709 q 472 709 510 716 l 510 331 l 582 331 q 589 258 609 186 l 511 188 l 510 170 l 511 157 q 522 101 575 101 l 583 101 l 583 0 q 502 7 408 7 q 315 7 234 0 l 234 101 l 242 101 q 272 104 290 120 q 307 137 307 170 l 308 186 l 174 186 l 18 182 q 19 193 20 203 q 20 213 20 227 q 20 241 20 255 q 19 269 19 284 z m 307 331 l 307 494 q 240 420 170 331 z"},"~":{"x_min":0,"x_max":519,"ha":519,"o":"m 29 265 l 30 293 q 38 377 74 420 q 109 463 165 463 q 192 463 229 450 l 314 418 l 334 411 q 343 407 352 407 q 370 407 380 438 l 384 455 l 385 464 l 490 464 l 488 437 q 481 353 446 310 q 411 267 354 267 q 336 267 320 270 q 305 274 289 280 l 205 311 l 184 319 q 172 323 168 323 q 149 323 139 292 q 135 282 135 275 l 134 265 z"},"D":{"x_min":0,"x_max":778,"ha":778,"o":"m 5 619 l 5 719 q 86 709 178 709 l 229 711 l 277 714 q 512 714 635 626 q 758 537 758 356 q 758 176 653 87 q 548 -2 342 -2 l 307 0 l 246 6 q 186 11 143 11 q 71 11 6 0 l 6 101 l 14 101 q 47 104 62 127 q 78 150 78 202 l 78 550 l 76 565 q 70 591 54 604 q 39 618 12 618 q 6 620 5 619 z m 402 95 q 459 106 494 158 q 528 210 539 313 q 542 340 542 365 q 542 451 510 512 q 479 573 426 602 q 387 623 353 623 q 324 623 306 606 q 287 590 284 562 l 283 517 l 283 203 q 283 144 302 118 q 320 91 363 91 q 382 91 402 95 z"},"^":{"x_min":0,"x_max":525,"ha":525,"o":"m 29 149 l 262 571 l 496 149 l 332 149 l 262 295 l 193 149 z"},"0":{"x_min":0,"x_max":610,"ha":610,"o":"m 306 734 q 436 734 517 616 q 590 509 590 361 q 590 215 516 109 q 435 -7 306 -7 q 177 -7 96 106 q 20 211 20 355 q 20 506 93 614 q 174 734 306 734 z m 236 249 q 246 178 253 153 q 260 128 274 114 q 287 100 305 100 q 325 100 338 114 q 350 127 358 154 q 365 180 375 249 q 376 276 376 313 q 377 350 377 360 q 377 373 377 379 q 377 390 377 396 q 377 405 377 410 q 377 418 377 421 q 377 462 375 472 q 365 543 358 568 q 351 592 338 606 q 325 619 305 619 q 286 619 273 606 q 260 592 253 567 q 246 542 236 472 q 235 463 235 421 q 235 379 235 360 q 235 295 235 276 q 235 257 236 249 z"},"F":{"x_min":0,"x_max":601,"ha":601,"o":"m 7 0 l 7 101 l 15 101 q 67 101 80 154 l 83 170 l 83 181 l 84 202 l 84 228 l 84 519 l 84 542 l 83 550 l 81 566 q 75 592 58 606 q 42 619 15 619 l 7 619 l 7 720 l 93 714 q 149 714 218 714 q 286 713 368 712 q 386 712 395 712 q 498 712 570 720 q 564 661 564 602 q 564 580 564 566 q 564 551 568 516 l 515 515 q 498 515 490 517 q 483 519 475 526 q 467 533 462 558 l 460 568 q 454 592 442 602 q 431 611 404 614 l 391 615 l 353 614 l 338 613 q 309 609 298 590 q 286 570 286 523 l 286 451 l 286 444 l 286 432 q 286 409 314 405 l 323 405 l 350 404 l 359 405 q 385 409 393 433 l 397 440 l 398 444 q 407 457 435 457 l 490 457 q 486 413 486 357 q 486 338 486 322 q 487 307 491 258 l 440 258 l 430 258 l 424 258 q 408 258 395 282 l 392 286 l 387 293 q 376 309 356 309 l 348 310 l 322 309 q 290 309 287 280 l 286 267 l 286 259 l 286 202 l 287 186 q 287 144 302 124 q 317 104 348 101 l 355 101 l 355 0 q 275 7 181 7 q 88 7 7 0 z"},"`":{"x_min":0,"x_max":282,"ha":282,"o":"m 1 613 l 107 709 l 246 576 l 166 502 q 88 565 1 613 z"},"k":{"x_min":0,"x_max":620,"ha":620,"o":"m 7 655 l 7 720 q 93 742 168 778 l 223 806 l 248 788 l 248 280 l 265 292 q 284 304 299 317 l 304 321 l 321 336 l 329 348 q 332 353 329 357 q 326 361 317 364 q 308 366 301 364 l 301 457 q 338 453 371 451 q 404 449 444 449 q 511 449 586 457 l 586 364 q 559 364 534 356 q 508 347 479 326 l 466 317 l 436 292 l 452 305 l 535 166 l 545 148 l 550 140 l 557 131 q 573 111 588 102 q 602 94 618 94 l 618 0 q 549 7 469 7 q 390 7 320 0 l 320 94 l 326 93 q 348 93 348 117 q 348 120 346 132 l 343 140 l 339 149 l 332 166 l 312 209 l 246 165 l 248 140 l 254 121 l 261 111 q 275 93 298 93 l 306 94 l 306 0 q 236 7 156 7 q 77 7 8 0 l 8 94 l 16 93 q 52 93 62 131 l 64 140 l 64 147 l 65 165 l 65 562 q 65 595 59 608 q 53 621 36 624 l 26 626 q 10 630 7 649 z"},"u":{"x_min":0,"x_max":613,"ha":613,"o":"m 7 364 l 7 458 q 33 455 66 454 q 100 452 141 452 l 186 452 l 246 457 l 246 179 q 246 120 297 120 q 314 120 328 125 q 362 135 366 180 l 367 192 l 367 292 l 367 309 l 366 317 l 364 327 q 354 364 315 364 l 308 364 l 308 457 q 335 454 376 453 q 416 452 421 452 l 489 452 l 548 457 l 548 166 l 549 155 q 549 93 599 93 l 606 94 l 606 0 q 551 7 488 7 q 448 7 427 6 q 406 5 367 0 l 367 29 l 359 24 l 351 20 q 335 11 306 1 q 277 -9 255 -12 q 233 -15 214 -15 q 141 -15 102 22 q 64 60 64 126 l 64 292 l 63 308 l 63 317 l 61 327 q 51 364 14 364 z"},"]":{"x_min":0,"x_max":258,"ha":258,"o":"m 0 -125 l 0 -31 l 12 -31 q 30 -31 45 -16 q 56 -5 59 6 q 62 17 62 48 l 62 672 q 62 698 60 710 q 59 723 45 736 q 39 742 35 744 q 24 751 12 751 l 0 751 l 0 845 q 60 834 116 834 q 169 834 222 843 l 222 -123 q 201 -119 172 -117 q 142 -115 116 -115 q 54 -115 0 -125 z"},"U":{"x_min":0,"x_max":720,"ha":720,"o":"m 7 619 l 7 719 q 46 714 92 711 q 138 708 181 708 q 221 708 266 711 q 311 714 354 719 l 354 619 l 348 618 q 319 618 302 600 q 285 582 285 550 l 285 536 l 285 518 l 285 258 q 285 99 400 99 q 417 99 435 102 q 486 111 510 146 q 533 182 533 255 l 533 518 l 533 531 q 533 618 467 618 l 460 619 l 460 719 q 488 714 522 711 q 555 708 587 708 q 616 708 649 711 q 682 714 713 719 l 713 619 l 706 618 q 656 614 644 565 l 642 550 l 642 544 l 642 518 l 642 251 q 642 125 570 54 q 499 -16 366 -16 q 226 -16 154 50 q 82 116 82 242 l 78 518 l 77 539 l 77 550 l 74 565 q 63 614 14 618 z"},"o":{"x_min":0,"x_max":569,"ha":569,"o":"m 18 229 q 18 311 60 370 q 103 428 182 457 q 240 477 292 477 q 387 477 458 422 q 528 367 545 281 q 550 258 550 227 q 550 122 476 53 q 402 -16 285 -16 q 261 -16 235 -13 q 136 1 77 67 q 18 133 18 229 z m 206 219 q 225 161 244 135 q 264 109 291 103 q 303 100 314 100 q 342 100 360 118 q 378 136 378 169 q 378 208 340 281 q 302 354 284 356 q 267 359 258 359 q 228 359 211 337 q 194 315 194 277 q 194 255 206 219 z"},"N":{"x_min":0,"x_max":775,"ha":775,"o":"m 7 619 l 7 719 q 77 709 156 709 q 235 709 306 719 q 314 682 325 660 q 336 638 370 585 l 590 247 l 590 518 l 590 531 q 590 618 522 618 l 515 619 l 515 719 q 574 709 641 709 q 708 709 768 719 l 768 619 l 761 618 q 713 614 702 565 l 700 550 l 699 539 l 699 518 l 699 142 q 699 82 709 32 l 716 0 q 663 10 604 10 q 546 10 493 0 q 487 32 474 56 q 469 66 446 101 l 190 486 l 190 202 l 190 181 l 191 170 l 193 155 q 205 105 256 101 l 263 101 l 263 0 q 242 4 206 6 q 169 8 143 8 l 70 8 l 9 0 l 9 101 l 16 101 q 64 105 76 155 l 78 170 l 79 182 l 79 202 l 79 227 l 79 518 l 79 543 l 79 550 l 77 565 q 65 614 15 618 z"},"+":{"x_min":0,"x_max":552,"ha":552,"o":"m 22 500 l 142 496 l 181 495 l 220 495 l 220 531 l 219 568 l 216 688 q 244 684 278 684 q 293 684 310 685 q 326 686 341 689 q 341 653 340 630 q 336 539 336 530 l 337 495 l 375 497 l 413 498 l 471 501 l 530 504 q 528 488 527 474 q 526 460 526 440 q 526 424 526 416 q 527 407 530 376 l 470 378 l 411 380 l 334 382 l 336 310 l 338 246 l 340 183 q 324 184 310 186 q 296 187 277 187 q 251 187 214 182 l 217 311 l 218 346 l 220 381 l 143 379 l 23 375 q 23 385 23 390 q 23 399 23 404 q 23 412 23 416 q 23 434 22 452 q 22 470 22 489 q 22 496 22 500 z"},"G":{"x_min":0,"x_max":731,"ha":731,"o":"m 654 714 q 654 691 653 643 q 652 595 652 571 l 654 527 l 609 527 q 584 527 574 530 q 565 533 561 542 l 558 548 l 552 561 l 540 585 q 528 605 503 616 q 478 628 444 628 q 406 628 368 612 q 331 597 301 563 q 271 529 254 477 q 236 425 236 359 q 236 334 239 307 q 250 217 286 166 q 322 116 375 105 q 392 102 406 102 q 429 102 444 108 q 459 115 466 122 q 472 130 474 149 l 475 156 l 475 194 q 475 235 462 250 q 448 264 409 264 l 392 265 l 389 367 q 425 364 474 362 q 522 361 580 361 l 643 361 l 724 367 l 724 265 l 717 264 q 698 259 689 244 q 680 229 680 196 l 679 178 l 679 37 l 653 28 l 582 7 q 499 -13 418 -13 q 265 -13 162 62 q 59 137 29 267 q 17 318 17 365 q 17 529 148 631 q 278 733 498 733 l 540 730 l 559 727 l 614 720 z"},"q":{"x_min":0,"x_max":588,"ha":588,"o":"m 339 426 l 339 457 q 403 449 460 449 q 517 449 581 457 l 581 364 l 573 364 q 523 364 523 303 l 523 292 l 524 -117 q 524 -138 538 -151 q 551 -164 574 -164 l 581 -164 l 581 -257 q 512 -250 433 -250 q 353 -250 283 -257 l 283 -164 l 291 -164 q 313 -164 326 -152 q 340 -139 340 -117 l 340 2 q 340 14 329 14 q 324 14 318 11 l 312 8 l 298 0 q 270 -16 223 -16 q 206 -16 186 -13 q 109 0 64 64 q 18 128 18 231 q 18 340 76 408 q 135 475 220 475 q 229 475 238 474 q 247 472 256 471 q 284 465 300 456 q 316 447 339 426 z m 290 353 q 252 358 230 325 q 208 292 208 217 q 208 170 220 144 q 233 118 256 107 l 269 103 q 281 101 286 101 q 310 101 325 119 q 340 137 340 170 l 340 278 q 340 344 290 353 z"},"d":{"x_min":0,"x_max":586,"ha":586,"o":"m 341 418 l 341 562 q 341 595 335 608 q 329 621 312 624 l 302 626 q 287 630 284 649 l 284 655 l 284 720 q 370 742 445 778 l 500 806 l 523 784 l 523 166 q 523 93 574 93 l 582 94 l 582 0 q 526 7 462 7 q 397 7 341 0 l 341 24 q 296 -16 224 -16 q 202 -16 178 -10 q 110 5 68 56 q 26 108 19 190 q 19 201 18 212 q 18 223 18 235 q 18 344 79 410 q 136 472 219 472 q 236 472 261 468 q 286 463 304 452 q 317 444 341 418 z m 340 299 q 340 354 295 363 q 291 364 282 364 q 255 364 235 336 q 215 309 210 256 q 209 250 209 245 q 209 237 209 233 q 209 218 209 211 q 209 167 224 142 q 238 118 263 112 q 274 109 282 109 q 306 109 322 126 q 339 144 339 173 l 340 288 z"},"1":{"x_min":0,"x_max":602,"ha":602,"o":"m 127 617 l 127 717 q 196 710 274 710 q 302 710 334 712 q 366 713 405 717 l 405 202 q 405 150 420 127 q 435 104 470 101 l 477 101 l 477 0 q 396 7 303 7 q 210 7 129 0 l 129 101 l 136 101 q 171 104 186 126 q 200 149 200 202 l 200 230 l 200 520 q 200 573 191 590 q 182 607 150 613 l 131 616 z"},"5":{"x_min":0,"x_max":611,"ha":611,"o":"m 35 30 q 39 58 42 106 q 45 154 45 229 l 112 230 q 145 230 154 222 q 164 213 164 181 q 164 114 237 100 q 251 97 262 97 q 301 97 330 122 q 360 146 367 182 q 374 217 374 242 q 374 300 344 334 q 315 367 266 367 q 260 367 254 367 q 246 365 242 365 q 193 357 168 316 l 54 359 l 58 452 q 58 518 57 584 q 56 649 55 715 l 104 713 l 166 710 l 422 710 l 466 712 l 508 715 l 491 559 q 435 559 305 557 q 175 555 167 555 l 167 447 l 177 453 l 190 460 q 265 498 339 498 q 433 498 500 438 q 568 379 581 281 q 583 272 583 264 q 583 256 583 247 q 583 186 555 131 q 519 63 446 24 q 374 -15 271 -15 q 198 -15 118 5 q 96 10 79 15 q 62 20 35 30 z"}}}
